<svg width="225" height="43" viewBox="0 0 225 43" fill="none" xmlns="http://www.w3.org/2000/svg">
<path d="M2.368 41.712C1.6 41.712 1.04 41.536 0.688 41.184C0.336 40.832 0.16 40.272 0.16 39.504V8.4C0.16 7.984 0.208 7.632 0.304 7.344C0.432 7.056 0.608 6.816 0.832 6.624L7.024 1.392C7.184 1.264 7.392 1.168 7.648 1.104C7.936 1.008 8.24 0.959999 8.56 0.959999H23.872C27.2 0.959999 29.648 1.616 31.216 2.928C32.784 4.208 33.568 6.16 33.568 8.784V11.088C33.568 12.208 33.408 13.168 33.088 13.968C32.8 14.768 32.352 15.408 31.744 15.888L31.6 15.984C33.328 16.368 34.624 17.2 35.488 18.48C36.352 19.728 36.784 21.472 36.784 23.712V28.128C36.784 29.568 36.576 30.816 36.16 31.872C35.744 32.896 35.12 33.76 34.288 34.464L28.096 39.696C27.296 40.368 26.288 40.864 25.072 41.184C23.856 41.536 22.432 41.712 20.8 41.712H2.368ZM26.992 36C30.16 36 32.496 35.36 34 34.08C35.536 32.8 36.304 30.816 36.304 28.128V23.712C36.304 21.376 35.808 19.6 34.816 18.384C33.824 17.168 32.304 16.464 30.256 16.272C31.216 15.856 31.92 15.232 32.368 14.4C32.848 13.536 33.088 12.432 33.088 11.088V8.784C33.088 6.288 32.336 4.448 30.832 3.264C29.328 2.048 27.008 1.44 23.872 1.44H8.56C7.952 1.44 7.504 1.584 7.216 1.872C6.96 2.128 6.832 2.56 6.832 3.168V34.272C6.832 34.88 6.96 35.328 7.216 35.616C7.504 35.872 7.952 36 8.56 36H26.992ZM25.072 31.68H12.16V5.76H21.904C23.216 5.76 24.288 5.904 25.12 6.192C25.952 6.448 26.592 6.816 27.04 7.296C27.488 7.744 27.792 8.272 27.952 8.88C28.112 9.488 28.192 10.144 28.192 10.848V13.92C28.192 14.88 28.016 15.76 27.664 16.56C27.344 17.36 26.496 17.936 25.12 18.288C26.432 18.288 27.504 18.432 28.336 18.72C29.168 18.976 29.808 19.36 30.256 19.872C30.704 20.352 30.992 20.928 31.12 21.6C31.28 22.272 31.36 23.008 31.36 23.808V26.88C31.36 27.584 31.28 28.24 31.12 28.848C30.96 29.424 30.656 29.92 30.208 30.336C29.792 30.752 29.168 31.088 28.336 31.344C27.504 31.568 26.416 31.68 25.072 31.68ZM21.904 6.24H12.64V18.288H21.904C23.216 18.288 24.256 18.176 25.024 17.952C25.792 17.696 26.368 17.376 26.752 16.992C27.168 16.576 27.424 16.112 27.52 15.6C27.648 15.056 27.712 14.496 27.712 13.92V10.848C27.712 9.568 27.344 8.48 26.608 7.584C25.872 6.688 24.304 6.24 21.904 6.24ZM17.632 9.6H21.712C22.32 9.6 22.768 9.76 23.056 10.08C23.376 10.4 23.536 10.88 23.536 11.52V12.864C23.536 13.504 23.376 13.984 23.056 14.304C22.768 14.624 22.32 14.784 21.712 14.784H17.632V9.6ZM25.12 18.768H12.64V31.2H25.072C27.472 31.2 29.04 30.816 29.776 30.048C30.512 29.248 30.88 28.192 30.88 26.88V23.808C30.88 22.368 30.512 21.168 29.776 20.208C29.072 19.248 27.52 18.768 25.12 18.768ZM17.632 22.176H23.872C24.48 22.176 24.928 22.336 25.216 22.656C25.536 22.944 25.696 23.408 25.696 24.048V25.92C25.696 26.56 25.536 27.04 25.216 27.36C24.928 27.68 24.48 27.84 23.872 27.84H17.632V22.176ZM54.8414 42.432C51.7374 42.432 49.1774 42.096 47.1614 41.424C45.1774 40.784 43.6254 39.92 42.5054 38.832C41.3854 37.744 40.6014 36.496 40.1534 35.088C39.7374 33.68 39.5294 32.224 39.5294 30.72V8.4C39.5294 7.984 39.5774 7.632 39.6734 7.344C39.8014 7.056 39.9774 6.816 40.2014 6.624L46.3934 1.392C46.5534 1.264 46.7614 1.168 47.0174 1.104C47.3054 1.008 47.6094 0.959999 47.9294 0.959999H55.4654C56.2334 0.959999 56.7934 1.136 57.1454 1.488C57.4974 1.84 57.6734 2.4 57.6734 3.168V25.056C57.6734 25.344 57.7214 25.616 57.8174 25.872C57.9134 26.096 58.1214 26.272 58.4414 26.4V8.4C58.4414 7.984 58.4894 7.632 58.5854 7.344C58.6814 7.056 58.8254 6.832 59.0174 6.672L59.0654 6.624L65.3054 1.392C65.4654 1.264 65.6734 1.168 65.9294 1.104C66.1854 1.008 66.4894 0.959999 66.8414 0.959999H74.1374C74.9054 0.959999 75.4654 1.136 75.8174 1.488C76.1694 1.84 76.3454 2.4 76.3454 3.168V26.928C76.3454 28.4 76.1374 29.76 75.7214 31.008C75.3054 32.256 74.5534 33.328 73.4654 34.224L67.2254 39.408C66.1054 40.368 64.5534 41.104 62.5694 41.616C60.5854 42.16 58.0094 42.432 54.8414 42.432ZM75.8654 26.928V3.168C75.8654 2.56 75.7214 2.128 75.4334 1.872C75.1774 1.584 74.7454 1.44 74.1374 1.44H66.8414C66.2334 1.44 65.7854 1.584 65.4974 1.872C65.2414 2.128 65.1134 2.56 65.1134 3.168V25.056C65.1134 25.696 64.8734 26.24 64.3934 26.688C63.9134 27.104 62.8254 27.312 61.1294 27.312C59.4654 27.312 58.3934 27.104 57.9134 26.688C57.4334 26.24 57.1934 25.696 57.1934 25.056V3.168C57.1934 2.56 57.0494 2.128 56.7614 1.872C56.5054 1.584 56.0734 1.44 55.4654 1.44H47.9294C47.3214 1.44 46.8734 1.584 46.5854 1.872C46.3294 2.128 46.2014 2.56 46.2014 3.168V26.928C46.2014 28.4 46.4094 29.744 46.8254 30.96C47.2734 32.144 48.0414 33.168 49.1294 34.032C50.2494 34.864 51.7694 35.52 53.6894 36C55.6094 36.48 58.0574 36.72 61.0334 36.72C64.0094 36.72 66.4574 36.48 68.3774 36C70.2974 35.52 71.8014 34.864 72.8894 34.032C74.0094 33.168 74.7774 32.144 75.1934 30.96C75.6414 29.744 75.8654 28.4 75.8654 26.928ZM51.4814 5.76H51.9614V25.776C51.9614 27.568 52.5854 29.024 53.8334 30.144C55.1134 31.232 57.5294 31.776 61.0814 31.776C64.6334 31.776 67.0494 31.232 68.3294 30.144C69.6094 29.024 70.2494 27.568 70.2494 25.776V5.76H70.7294V25.776C70.7294 27.696 70.0574 29.264 68.7134 30.48C67.3694 31.664 64.8254 32.256 61.0814 32.256C57.3374 32.256 54.7934 31.664 53.4494 30.48C52.1374 29.264 51.4814 27.696 51.4814 25.776V5.76ZM98.3631 41.712H90.5871C89.7871 41.712 89.2111 41.536 88.8591 41.184C88.5391 40.832 88.3791 40.272 88.3791 39.504V33.504L81.1311 23.808C80.3631 22.784 79.8511 21.888 79.5951 21.12C79.3391 20.352 79.2111 19.184 79.2111 17.616V8.4C79.2111 7.984 79.2591 7.632 79.3551 7.344C79.4831 7.056 79.6591 6.816 79.8831 6.624L86.0751 1.392C86.2351 1.264 86.4431 1.168 86.6991 1.104C86.9871 1.008 87.2911 0.959999 87.6111 0.959999H95.0031C95.7711 0.959999 96.3311 1.136 96.6831 1.488C97.0351 1.84 97.2111 2.4 97.2111 3.168V11.04C97.2111 11.328 97.2271 11.616 97.2591 11.904C97.2911 12.192 97.3871 12.496 97.5471 12.816L98.1231 13.632V8.4C98.1231 7.984 98.1711 7.632 98.2671 7.344C98.3951 7.056 98.5711 6.816 98.7951 6.624L104.987 1.392C105.147 1.264 105.355 1.168 105.611 1.104C105.899 1.008 106.203 0.959999 106.523 0.959999H113.675C114.443 0.959999 115.003 1.136 115.355 1.488C115.707 1.84 115.883 2.4 115.883 3.168V12.384C115.883 13.952 115.755 15.12 115.499 15.888C115.243 16.656 114.731 17.552 113.963 18.576L106.763 28.32V34.272C106.763 34.688 106.699 35.04 106.571 35.328C106.475 35.616 106.315 35.856 106.091 36.048L99.8511 41.232C99.7231 41.36 99.5151 41.472 99.2271 41.568C98.9711 41.664 98.6831 41.712 98.3631 41.712ZM104.555 36C105.163 36 105.595 35.872 105.851 35.616C106.139 35.328 106.283 34.88 106.283 34.272V28.176L113.579 18.288C114.283 17.296 114.763 16.432 115.019 15.696C115.275 14.96 115.403 13.856 115.403 12.384V3.168C115.403 2.56 115.259 2.128 114.971 1.872C114.715 1.584 114.283 1.44 113.675 1.44H106.523C105.915 1.44 105.467 1.584 105.179 1.872C104.923 2.128 104.795 2.56 104.795 3.168V11.04C104.795 11.36 104.779 11.696 104.747 12.048C104.715 12.4 104.587 12.736 104.363 13.056L102.155 16.512C101.995 16.8 101.819 17.008 101.627 17.136C101.467 17.264 101.259 17.328 101.003 17.328H100.523C100.267 17.328 100.043 17.264 99.8511 17.136C99.6911 17.008 99.5311 16.8 99.3711 16.512L97.1631 13.056C96.9391 12.736 96.8111 12.4 96.7791 12.048C96.7471 11.696 96.7311 11.36 96.7311 11.04V3.168C96.7311 2.56 96.5871 2.128 96.2991 1.872C96.0431 1.584 95.6111 1.44 95.0031 1.44H87.6111C87.0031 1.44 86.5551 1.584 86.2671 1.872C86.0111 2.128 85.8831 2.56 85.8831 3.168V12.384C85.8831 13.856 85.9951 14.96 86.2191 15.696C86.4751 16.432 86.9711 17.296 87.7071 18.288L95.0511 28.128V34.272C95.0511 34.88 95.1791 35.328 95.4351 35.616C95.7231 35.872 96.1711 36 96.7791 36H104.555ZM101.243 23.472H100.907V31.68H100.427V23.472H99.9471C99.2431 23.472 98.6031 23.312 98.0271 22.992C97.4831 22.672 96.9551 22.16 96.4431 21.456L91.7871 14.976C91.4351 14.496 91.2271 13.936 91.1631 13.296C91.0991 12.656 91.0671 11.984 91.0671 11.28V5.76H91.5471V11.28C91.5471 11.952 91.5791 12.592 91.6431 13.2C91.7071 13.776 91.8991 14.304 92.2191 14.784L96.8751 21.264C97.2911 21.904 97.7711 22.352 98.3151 22.608C98.8591 22.864 99.4031 22.992 99.9471 22.992H101.243C101.851 22.992 102.395 22.864 102.875 22.608C103.387 22.32 103.883 21.872 104.363 21.264L109.163 14.784C109.483 14.368 109.675 13.856 109.739 13.248C109.803 12.608 109.835 11.952 109.835 11.28V5.76H110.315V11.28C110.315 11.984 110.283 12.656 110.219 13.296C110.187 13.904 109.979 14.464 109.595 14.976L104.795 21.456C104.283 22.16 103.739 22.672 103.163 22.992C102.619 23.312 101.979 23.472 101.243 23.472ZM140.876 41.712H120.428C119.66 41.712 119.1 41.536 118.748 41.184C118.396 40.832 118.22 40.272 118.22 39.504V33.792C118.22 33.376 118.268 33.024 118.364 32.736C118.492 32.448 118.668 32.208 118.892 32.016L124.7 27.12V16.416H120.428C119.66 16.416 119.1 16.24 118.748 15.888C118.396 15.536 118.22 14.976 118.22 14.208V8.4C118.22 7.984 118.268 7.632 118.364 7.344C118.492 7.056 118.668 6.816 118.892 6.624L125.084 1.392C125.244 1.264 125.452 1.168 125.708 1.104C125.996 1.008 126.3 0.959999 126.62 0.959999H147.068C147.836 0.959999 148.396 1.136 148.748 1.488C149.1 1.84 149.276 2.4 149.276 3.168V8.976C149.276 9.392 149.212 9.744 149.084 10.032C148.988 10.32 148.828 10.56 148.604 10.752L142.892 15.552V26.352H147.068C147.836 26.352 148.396 26.528 148.748 26.88C149.1 27.232 149.276 27.792 149.276 28.56V34.272C149.276 34.688 149.212 35.04 149.084 35.328C148.988 35.616 148.828 35.856 148.604 36.048L142.364 41.232C142.236 41.36 142.028 41.472 141.74 41.568C141.484 41.664 141.196 41.712 140.876 41.712ZM126.62 36H147.068C147.676 36 148.108 35.872 148.364 35.616C148.652 35.328 148.796 34.88 148.796 34.272V28.56C148.796 27.952 148.652 27.52 148.364 27.264C148.108 26.976 147.676 26.832 147.068 26.832H142.412V10.704H147.068C147.676 10.704 148.108 10.576 148.364 10.32C148.652 10.032 148.796 9.584 148.796 8.976V3.168C148.796 2.56 148.652 2.128 148.364 1.872C148.108 1.584 147.676 1.44 147.068 1.44H126.62C126.012 1.44 125.564 1.584 125.276 1.872C125.02 2.128 124.892 2.56 124.892 3.168V8.976C124.892 9.584 125.02 10.032 125.276 10.32C125.564 10.576 126.012 10.704 126.62 10.704H131.372V26.832H126.62C126.012 26.832 125.564 26.976 125.276 27.264C125.02 27.52 124.892 27.952 124.892 28.56V34.272C124.892 34.88 125.02 35.328 125.276 35.616C125.564 35.872 126.012 36 126.62 36ZM144.476 31.68H129.212V31.2H136.652V6.24H129.212V5.76H144.476V6.24H137.132V31.2H144.476V31.68ZM179.472 41.712H155.04C154.272 41.712 153.712 41.536 153.36 41.184C153.008 40.832 152.832 40.272 152.832 39.504V8.4C152.832 7.984 152.88 7.632 152.976 7.344C153.104 7.056 153.28 6.816 153.504 6.624L159.696 1.392C159.856 1.264 160.064 1.168 160.32 1.104C160.608 1.008 160.912 0.959999 161.232 0.959999H168.672C169.44 0.959999 170 1.136 170.352 1.488C170.704 1.84 170.88 2.4 170.88 3.168V22.704L170.976 22.608L177.168 17.376C177.328 17.248 177.536 17.152 177.792 17.088C178.08 16.992 178.384 16.944 178.704 16.944H185.664C186.432 16.944 186.992 17.12 187.344 17.472C187.696 17.824 187.872 18.384 187.872 19.152V34.272C187.872 34.688 187.808 35.04 187.68 35.328C187.584 35.616 187.424 35.856 187.2 36.048L180.96 41.232C180.832 41.36 180.624 41.472 180.336 41.568C180.08 41.664 179.792 41.712 179.472 41.712ZM185.664 36C186.272 36 186.704 35.872 186.96 35.616C187.248 35.328 187.392 34.88 187.392 34.272V19.152C187.392 18.544 187.248 18.112 186.96 17.856C186.704 17.568 186.272 17.424 185.664 17.424H178.704C178.096 17.424 177.648 17.568 177.36 17.856C177.104 18.112 176.976 18.544 176.976 19.152V26.928H170.4V3.168C170.4 2.56 170.256 2.128 169.968 1.872C169.712 1.584 169.28 1.44 168.672 1.44H161.232C160.624 1.44 160.176 1.584 159.888 1.872C159.632 2.128 159.504 2.56 159.504 3.168V34.272C159.504 34.88 159.632 35.328 159.888 35.616C160.176 35.872 160.624 36 161.232 36H185.664ZM164.736 31.68V5.76H165.216V31.2H181.92V21.744H182.4V31.68H164.736ZM206.598 41.712H198.822C198.022 41.712 197.446 41.536 197.094 41.184C196.774 40.832 196.614 40.272 196.614 39.504V33.504L189.366 23.808C188.598 22.784 188.086 21.888 187.83 21.12C187.574 20.352 187.446 19.184 187.446 17.616V8.4C187.446 7.984 187.494 7.632 187.59 7.344C187.718 7.056 187.894 6.816 188.118 6.624L194.31 1.392C194.47 1.264 194.678 1.168 194.934 1.104C195.222 1.008 195.526 0.959999 195.846 0.959999H203.238C204.006 0.959999 204.566 1.136 204.918 1.488C205.27 1.84 205.446 2.4 205.446 3.168V11.04C205.446 11.328 205.462 11.616 205.494 11.904C205.526 12.192 205.622 12.496 205.782 12.816L206.358 13.632V8.4C206.358 7.984 206.406 7.632 206.502 7.344C206.63 7.056 206.806 6.816 207.03 6.624L213.222 1.392C213.382 1.264 213.59 1.168 213.846 1.104C214.134 1.008 214.438 0.959999 214.758 0.959999H221.91C222.678 0.959999 223.238 1.136 223.59 1.488C223.942 1.84 224.118 2.4 224.118 3.168V12.384C224.118 13.952 223.99 15.12 223.734 15.888C223.478 16.656 222.966 17.552 222.198 18.576L214.998 28.32V34.272C214.998 34.688 214.934 35.04 214.806 35.328C214.71 35.616 214.55 35.856 214.326 36.048L208.086 41.232C207.958 41.36 207.75 41.472 207.462 41.568C207.206 41.664 206.918 41.712 206.598 41.712ZM212.79 36C213.398 36 213.83 35.872 214.086 35.616C214.374 35.328 214.518 34.88 214.518 34.272V28.176L221.814 18.288C222.518 17.296 222.998 16.432 223.254 15.696C223.51 14.96 223.638 13.856 223.638 12.384V3.168C223.638 2.56 223.494 2.128 223.206 1.872C222.95 1.584 222.518 1.44 221.91 1.44H214.758C214.15 1.44 213.702 1.584 213.414 1.872C213.158 2.128 213.03 2.56 213.03 3.168V11.04C213.03 11.36 213.014 11.696 212.982 12.048C212.95 12.4 212.822 12.736 212.598 13.056L210.39 16.512C210.23 16.8 210.054 17.008 209.862 17.136C209.702 17.264 209.494 17.328 209.238 17.328H208.758C208.502 17.328 208.278 17.264 208.086 17.136C207.926 17.008 207.766 16.8 207.606 16.512L205.398 13.056C205.174 12.736 205.046 12.4 205.014 12.048C204.982 11.696 204.966 11.36 204.966 11.04V3.168C204.966 2.56 204.822 2.128 204.534 1.872C204.278 1.584 203.846 1.44 203.238 1.44H195.846C195.238 1.44 194.79 1.584 194.502 1.872C194.246 2.128 194.118 2.56 194.118 3.168V12.384C194.118 13.856 194.23 14.96 194.454 15.696C194.71 16.432 195.206 17.296 195.942 18.288L203.286 28.128V34.272C203.286 34.88 203.414 35.328 203.67 35.616C203.958 35.872 204.406 36 205.014 36H212.79ZM209.478 23.472H209.142V31.68H208.662V23.472H208.182C207.478 23.472 206.838 23.312 206.262 22.992C205.718 22.672 205.19 22.16 204.678 21.456L200.022 14.976C199.67 14.496 199.462 13.936 199.398 13.296C199.334 12.656 199.302 11.984 199.302 11.28V5.76H199.782V11.28C199.782 11.952 199.814 12.592 199.878 13.2C199.942 13.776 200.134 14.304 200.454 14.784L205.11 21.264C205.526 21.904 206.006 22.352 206.55 22.608C207.094 22.864 207.638 22.992 208.182 22.992H209.478C210.086 22.992 210.63 22.864 211.109 22.608C211.622 22.32 212.118 21.872 212.598 21.264L217.398 14.784C217.718 14.368 217.91 13.856 217.974 13.248C218.038 12.608 218.07 11.952 218.07 11.28V5.76H218.55V11.28C218.55 11.984 218.518 12.656 218.454 13.296C218.422 13.904 218.214 14.464 217.83 14.976L213.03 21.456C212.518 22.16 211.974 22.672 211.398 22.992C210.854 23.312 210.214 23.472 209.478 23.472Z" fill="#395886"/>
</svg>
